<mxfile host="app.diagrams.net" modified="2023-11-16T17:31:38.879Z" agent="Mozilla/5.0 (Macintosh; Intel Mac OS X 10_15_7) AppleWebKit/537.36 (KHTML, like Gecko) Chrome/119.0.0.0 Safari/537.36" etag="6vetzPn89l9gwfi9Yq_7" version="22.1.2" type="device">
  <diagram id="C5RBs43oDa-KdzZeNtuy" name="Page-1">
    <mxGraphModel dx="3774" dy="2525" grid="1" gridSize="10" guides="1" tooltips="1" connect="1" arrows="1" fold="1" page="1" pageScale="1" pageWidth="827" pageHeight="1169" math="0" shadow="0">
      <root>
        <mxCell id="WIyWlLk6GJQsqaUBKTNV-0" />
        <mxCell id="WIyWlLk6GJQsqaUBKTNV-1" parent="WIyWlLk6GJQsqaUBKTNV-0" />
        <mxCell id="zkfFHV4jXpPFQw0GAbJ--0" value="User" style="swimlane;fontStyle=1;align=center;verticalAlign=top;childLayout=stackLayout;horizontal=1;startSize=26;horizontalStack=0;resizeParent=1;resizeLast=0;collapsible=1;marginBottom=0;rounded=0;shadow=0;strokeWidth=1;" parent="WIyWlLk6GJQsqaUBKTNV-1" vertex="1">
          <mxGeometry x="-480" y="564" width="490" height="346" as="geometry">
            <mxRectangle x="230" y="140" width="160" height="26" as="alternateBounds" />
          </mxGeometry>
        </mxCell>
        <mxCell id="40zHV0QdU3ptPT7Z5SWe-0" value="+ id: LongÂ " style="text;align=left;verticalAlign=top;spacingLeft=4;spacingRight=4;overflow=hidden;rotatable=0;points=[[0,0.5],[1,0.5]];portConstraint=eastwest;" parent="zkfFHV4jXpPFQw0GAbJ--0" vertex="1">
          <mxGeometry y="26" width="490" height="26" as="geometry" />
        </mxCell>
        <mxCell id="40zHV0QdU3ptPT7Z5SWe-1" value="+ userName: String" style="text;align=left;verticalAlign=top;spacingLeft=4;spacingRight=4;overflow=hidden;rotatable=0;points=[[0,0.5],[1,0.5]];portConstraint=eastwest;" parent="zkfFHV4jXpPFQw0GAbJ--0" vertex="1">
          <mxGeometry y="52" width="490" height="26" as="geometry" />
        </mxCell>
        <mxCell id="40zHV0QdU3ptPT7Z5SWe-2" value="+ email: String" style="text;align=left;verticalAlign=top;spacingLeft=4;spacingRight=4;overflow=hidden;rotatable=0;points=[[0,0.5],[1,0.5]];portConstraint=eastwest;" parent="zkfFHV4jXpPFQw0GAbJ--0" vertex="1">
          <mxGeometry y="78" width="490" height="26" as="geometry" />
        </mxCell>
        <mxCell id="40zHV0QdU3ptPT7Z5SWe-3" value="+ role Role" style="text;align=left;verticalAlign=top;spacingLeft=4;spacingRight=4;overflow=hidden;rotatable=0;points=[[0,0.5],[1,0.5]];portConstraint=eastwest;" parent="zkfFHV4jXpPFQw0GAbJ--0" vertex="1">
          <mxGeometry y="104" width="490" height="26" as="geometry" />
        </mxCell>
        <mxCell id="40zHV0QdU3ptPT7Z5SWe-4" value="+ messages: List&lt;Message&gt;" style="text;align=left;verticalAlign=top;spacingLeft=4;spacingRight=4;overflow=hidden;rotatable=0;points=[[0,0.5],[1,0.5]];portConstraint=eastwest;" parent="zkfFHV4jXpPFQw0GAbJ--0" vertex="1">
          <mxGeometry y="130" width="490" height="26" as="geometry" />
        </mxCell>
        <mxCell id="40zHV0QdU3ptPT7Z5SWe-5" value="+ reactions: List&lt;MessageReaction&gt;" style="text;align=left;verticalAlign=top;spacingLeft=4;spacingRight=4;overflow=hidden;rotatable=0;points=[[0,0.5],[1,0.5]];portConstraint=eastwest;" parent="zkfFHV4jXpPFQw0GAbJ--0" vertex="1">
          <mxGeometry y="156" width="490" height="26" as="geometry" />
        </mxCell>
        <mxCell id="40zHV0QdU3ptPT7Z5SWe-6" value="+ userChatroomAssociations: List&lt;userChatroomAssociation&gt;" style="text;align=left;verticalAlign=top;spacingLeft=4;spacingRight=4;overflow=hidden;rotatable=0;points=[[0,0.5],[1,0.5]];portConstraint=eastwest;" parent="zkfFHV4jXpPFQw0GAbJ--0" vertex="1">
          <mxGeometry y="182" width="490" height="26" as="geometry" />
        </mxCell>
        <mxCell id="zkfFHV4jXpPFQw0GAbJ--4" value="" style="line;html=1;strokeWidth=1;align=left;verticalAlign=middle;spacingTop=-1;spacingLeft=3;spacingRight=3;rotatable=0;labelPosition=right;points=[];portConstraint=eastwest;" parent="zkfFHV4jXpPFQw0GAbJ--0" vertex="1">
          <mxGeometry y="208" width="490" height="8" as="geometry" />
        </mxCell>
        <mxCell id="Mv3JD8FURXdegyGYYvid-127" value="+ addMessage(Message message): void" style="text;strokeColor=none;fillColor=none;align=left;verticalAlign=top;spacingLeft=4;spacingRight=4;overflow=hidden;rotatable=0;points=[[0,0.5],[1,0.5]];portConstraint=eastwest;whiteSpace=wrap;html=1;" parent="zkfFHV4jXpPFQw0GAbJ--0" vertex="1">
          <mxGeometry y="216" width="490" height="26" as="geometry" />
        </mxCell>
        <mxCell id="40zHV0QdU3ptPT7Z5SWe-7" value="+ removeMessage(Message message): void" style="text;strokeColor=none;fillColor=none;align=left;verticalAlign=top;spacingLeft=4;spacingRight=4;overflow=hidden;rotatable=0;points=[[0,0.5],[1,0.5]];portConstraint=eastwest;whiteSpace=wrap;html=1;" parent="zkfFHV4jXpPFQw0GAbJ--0" vertex="1">
          <mxGeometry y="242" width="490" height="26" as="geometry" />
        </mxCell>
        <mxCell id="40zHV0QdU3ptPT7Z5SWe-8" value="+ addUserChatroomAssociation(UserChatroomAssociation userChatroomAssociation)" style="text;strokeColor=none;fillColor=none;align=left;verticalAlign=top;spacingLeft=4;spacingRight=4;overflow=hidden;rotatable=0;points=[[0,0.5],[1,0.5]];portConstraint=eastwest;whiteSpace=wrap;html=1;" parent="zkfFHV4jXpPFQw0GAbJ--0" vertex="1">
          <mxGeometry y="268" width="490" height="26" as="geometry" />
        </mxCell>
        <mxCell id="40zHV0QdU3ptPT7Z5SWe-10" value="+ removeUserChatroomAssociation(UserChatroomAssociation userChatroomAssociation)" style="text;strokeColor=none;fillColor=none;align=left;verticalAlign=top;spacingLeft=4;spacingRight=4;overflow=hidden;rotatable=0;points=[[0,0.5],[1,0.5]];portConstraint=eastwest;whiteSpace=wrap;html=1;" parent="zkfFHV4jXpPFQw0GAbJ--0" vertex="1">
          <mxGeometry y="294" width="490" height="26" as="geometry" />
        </mxCell>
        <mxCell id="utYXCjNVVaFUY7Kg1UjY-6" value="+ getters and setters()" style="text;strokeColor=none;fillColor=none;align=left;verticalAlign=top;spacingLeft=4;spacingRight=4;overflow=hidden;rotatable=0;points=[[0,0.5],[1,0.5]];portConstraint=eastwest;whiteSpace=wrap;html=1;" vertex="1" parent="zkfFHV4jXpPFQw0GAbJ--0">
          <mxGeometry y="320" width="490" height="26" as="geometry" />
        </mxCell>
        <mxCell id="Mv3JD8FURXdegyGYYvid-42" value="Message&lt;br&gt;" style="swimlane;fontStyle=1;align=center;verticalAlign=top;childLayout=stackLayout;horizontal=1;startSize=26;horizontalStack=0;resizeParent=1;resizeParentMax=0;resizeLast=0;collapsible=1;marginBottom=0;whiteSpace=wrap;html=1;" parent="WIyWlLk6GJQsqaUBKTNV-1" vertex="1">
          <mxGeometry x="114" y="350" width="300" height="268" as="geometry" />
        </mxCell>
        <mxCell id="Mv3JD8FURXdegyGYYvid-43" value="+ id: Long&amp;nbsp;" style="text;strokeColor=none;fillColor=none;align=left;verticalAlign=top;spacingLeft=4;spacingRight=4;overflow=hidden;rotatable=0;points=[[0,0.5],[1,0.5]];portConstraint=eastwest;whiteSpace=wrap;html=1;" parent="Mv3JD8FURXdegyGYYvid-42" vertex="1">
          <mxGeometry y="26" width="300" height="26" as="geometry" />
        </mxCell>
        <mxCell id="utYXCjNVVaFUY7Kg1UjY-0" value="+ userName: String" style="text;strokeColor=none;fillColor=none;align=left;verticalAlign=top;spacingLeft=4;spacingRight=4;overflow=hidden;rotatable=0;points=[[0,0.5],[1,0.5]];portConstraint=eastwest;whiteSpace=wrap;html=1;" vertex="1" parent="Mv3JD8FURXdegyGYYvid-42">
          <mxGeometry y="52" width="300" height="26" as="geometry" />
        </mxCell>
        <mxCell id="utYXCjNVVaFUY7Kg1UjY-1" value="+ content: String" style="text;strokeColor=none;fillColor=none;align=left;verticalAlign=top;spacingLeft=4;spacingRight=4;overflow=hidden;rotatable=0;points=[[0,0.5],[1,0.5]];portConstraint=eastwest;whiteSpace=wrap;html=1;" vertex="1" parent="Mv3JD8FURXdegyGYYvid-42">
          <mxGeometry y="78" width="300" height="26" as="geometry" />
        </mxCell>
        <mxCell id="Mv3JD8FURXdegyGYYvid-61" value="+ timeCreated: ZonedDateTime" style="text;strokeColor=none;fillColor=none;align=left;verticalAlign=top;spacingLeft=4;spacingRight=4;overflow=hidden;rotatable=0;points=[[0,0.5],[1,0.5]];portConstraint=eastwest;whiteSpace=wrap;html=1;" parent="Mv3JD8FURXdegyGYYvid-42" vertex="1">
          <mxGeometry y="104" width="300" height="26" as="geometry" />
        </mxCell>
        <mxCell id="utYXCjNVVaFUY7Kg1UjY-2" value="+ user: User" style="text;strokeColor=none;fillColor=none;align=left;verticalAlign=top;spacingLeft=4;spacingRight=4;overflow=hidden;rotatable=0;points=[[0,0.5],[1,0.5]];portConstraint=eastwest;whiteSpace=wrap;html=1;" vertex="1" parent="Mv3JD8FURXdegyGYYvid-42">
          <mxGeometry y="130" width="300" height="26" as="geometry" />
        </mxCell>
        <mxCell id="utYXCjNVVaFUY7Kg1UjY-3" value="+ chatroom: Chatroom" style="text;strokeColor=none;fillColor=none;align=left;verticalAlign=top;spacingLeft=4;spacingRight=4;overflow=hidden;rotatable=0;points=[[0,0.5],[1,0.5]];portConstraint=eastwest;whiteSpace=wrap;html=1;" vertex="1" parent="Mv3JD8FURXdegyGYYvid-42">
          <mxGeometry y="156" width="300" height="26" as="geometry" />
        </mxCell>
        <mxCell id="utYXCjNVVaFUY7Kg1UjY-4" value="+ reactions: List&amp;lt;MessageReaction&amp;gt;" style="text;strokeColor=none;fillColor=none;align=left;verticalAlign=top;spacingLeft=4;spacingRight=4;overflow=hidden;rotatable=0;points=[[0,0.5],[1,0.5]];portConstraint=eastwest;whiteSpace=wrap;html=1;" vertex="1" parent="Mv3JD8FURXdegyGYYvid-42">
          <mxGeometry y="182" width="300" height="26" as="geometry" />
        </mxCell>
        <mxCell id="Mv3JD8FURXdegyGYYvid-44" value="" style="line;strokeWidth=1;fillColor=none;align=left;verticalAlign=middle;spacingTop=-1;spacingLeft=3;spacingRight=3;rotatable=0;labelPosition=right;points=[];portConstraint=eastwest;strokeColor=inherit;" parent="Mv3JD8FURXdegyGYYvid-42" vertex="1">
          <mxGeometry y="208" width="300" height="8" as="geometry" />
        </mxCell>
        <mxCell id="Mv3JD8FURXdegyGYYvid-45" value="+ addReaction(MessageReaction messageReaction)" style="text;strokeColor=none;fillColor=none;align=left;verticalAlign=top;spacingLeft=4;spacingRight=4;overflow=hidden;rotatable=0;points=[[0,0.5],[1,0.5]];portConstraint=eastwest;whiteSpace=wrap;html=1;" parent="Mv3JD8FURXdegyGYYvid-42" vertex="1">
          <mxGeometry y="216" width="300" height="26" as="geometry" />
        </mxCell>
        <mxCell id="utYXCjNVVaFUY7Kg1UjY-5" value="+ getters and setters()" style="text;strokeColor=none;fillColor=none;align=left;verticalAlign=top;spacingLeft=4;spacingRight=4;overflow=hidden;rotatable=0;points=[[0,0.5],[1,0.5]];portConstraint=eastwest;whiteSpace=wrap;html=1;" vertex="1" parent="Mv3JD8FURXdegyGYYvid-42">
          <mxGeometry y="242" width="300" height="26" as="geometry" />
        </mxCell>
        <mxCell id="Mv3JD8FURXdegyGYYvid-64" value="Role" style="swimlane;fontStyle=1;align=center;verticalAlign=top;childLayout=stackLayout;horizontal=1;startSize=26;horizontalStack=0;resizeParent=1;resizeParentMax=0;resizeLast=0;collapsible=1;marginBottom=0;whiteSpace=wrap;html=1;" parent="WIyWlLk6GJQsqaUBKTNV-1" vertex="1">
          <mxGeometry x="-710" y="350" width="160" height="138" as="geometry" />
        </mxCell>
        <mxCell id="Mv3JD8FURXdegyGYYvid-65" value="student = 1," style="text;strokeColor=none;fillColor=none;align=left;verticalAlign=top;spacingLeft=4;spacingRight=4;overflow=hidden;rotatable=0;points=[[0,0.5],[1,0.5]];portConstraint=eastwest;whiteSpace=wrap;html=1;" parent="Mv3JD8FURXdegyGYYvid-64" vertex="1">
          <mxGeometry y="26" width="160" height="26" as="geometry" />
        </mxCell>
        <mxCell id="Mv3JD8FURXdegyGYYvid-82" value="moderator = 2," style="text;strokeColor=none;fillColor=none;align=left;verticalAlign=top;spacingLeft=4;spacingRight=4;overflow=hidden;rotatable=0;points=[[0,0.5],[1,0.5]];portConstraint=eastwest;whiteSpace=wrap;html=1;" parent="Mv3JD8FURXdegyGYYvid-64" vertex="1">
          <mxGeometry y="52" width="160" height="26" as="geometry" />
        </mxCell>
        <mxCell id="Mv3JD8FURXdegyGYYvid-69" value="Admin = 3," style="text;strokeColor=none;fillColor=none;align=left;verticalAlign=top;spacingLeft=4;spacingRight=4;overflow=hidden;rotatable=0;points=[[0,0.5],[1,0.5]];portConstraint=eastwest;whiteSpace=wrap;html=1;" parent="Mv3JD8FURXdegyGYYvid-64" vertex="1">
          <mxGeometry y="78" width="160" height="26" as="geometry" />
        </mxCell>
        <mxCell id="Mv3JD8FURXdegyGYYvid-67" value="" style="line;strokeWidth=1;fillColor=none;align=left;verticalAlign=middle;spacingTop=-1;spacingLeft=3;spacingRight=3;rotatable=0;labelPosition=right;points=[];portConstraint=eastwest;strokeColor=inherit;" parent="Mv3JD8FURXdegyGYYvid-64" vertex="1">
          <mxGeometry y="104" width="160" height="8" as="geometry" />
        </mxCell>
        <mxCell id="Mv3JD8FURXdegyGYYvid-68" value="+ getters and setters()" style="text;strokeColor=none;fillColor=none;align=left;verticalAlign=top;spacingLeft=4;spacingRight=4;overflow=hidden;rotatable=0;points=[[0,0.5],[1,0.5]];portConstraint=eastwest;whiteSpace=wrap;html=1;" parent="Mv3JD8FURXdegyGYYvid-64" vertex="1">
          <mxGeometry y="112" width="160" height="26" as="geometry" />
        </mxCell>
        <mxCell id="Mv3JD8FURXdegyGYYvid-115" value="" style="endArrow=diamondThin;endFill=1;endSize=24;html=1;rounded=0;exitX=1;exitY=0.5;exitDx=0;exitDy=0;entryX=0.002;entryY=0.09;entryDx=0;entryDy=0;entryPerimeter=0;" parent="WIyWlLk6GJQsqaUBKTNV-1" source="Mv3JD8FURXdegyGYYvid-82" edge="1" target="40zHV0QdU3ptPT7Z5SWe-3">
          <mxGeometry width="160" relative="1" as="geometry">
            <mxPoint x="70" y="320" as="sourcePoint" />
            <mxPoint x="-540" y="181" as="targetPoint" />
          </mxGeometry>
        </mxCell>
        <mxCell id="utYXCjNVVaFUY7Kg1UjY-9" value="MessageReaction" style="swimlane;fontStyle=1;align=center;verticalAlign=top;childLayout=stackLayout;horizontal=1;startSize=26;horizontalStack=0;resizeParent=1;resizeParentMax=0;resizeLast=0;collapsible=1;marginBottom=0;whiteSpace=wrap;html=1;" vertex="1" parent="WIyWlLk6GJQsqaUBKTNV-1">
          <mxGeometry x="114" y="694" width="320" height="164" as="geometry" />
        </mxCell>
        <mxCell id="utYXCjNVVaFUY7Kg1UjY-10" value="+ id: Long" style="text;strokeColor=none;fillColor=none;align=left;verticalAlign=top;spacingLeft=4;spacingRight=4;overflow=hidden;rotatable=0;points=[[0,0.5],[1,0.5]];portConstraint=eastwest;whiteSpace=wrap;html=1;" vertex="1" parent="utYXCjNVVaFUY7Kg1UjY-9">
          <mxGeometry y="26" width="320" height="26" as="geometry" />
        </mxCell>
        <mxCell id="utYXCjNVVaFUY7Kg1UjY-137" value="+ message: Message" style="text;strokeColor=none;fillColor=none;align=left;verticalAlign=top;spacingLeft=4;spacingRight=4;overflow=hidden;rotatable=0;points=[[0,0.5],[1,0.5]];portConstraint=eastwest;whiteSpace=wrap;html=1;" vertex="1" parent="utYXCjNVVaFUY7Kg1UjY-9">
          <mxGeometry y="52" width="320" height="26" as="geometry" />
        </mxCell>
        <mxCell id="utYXCjNVVaFUY7Kg1UjY-139" value="+ user: User" style="text;strokeColor=none;fillColor=none;align=left;verticalAlign=top;spacingLeft=4;spacingRight=4;overflow=hidden;rotatable=0;points=[[0,0.5],[1,0.5]];portConstraint=eastwest;whiteSpace=wrap;html=1;" vertex="1" parent="utYXCjNVVaFUY7Kg1UjY-9">
          <mxGeometry y="78" width="320" height="26" as="geometry" />
        </mxCell>
        <mxCell id="utYXCjNVVaFUY7Kg1UjY-138" value="+ reaction: Reaction" style="text;strokeColor=none;fillColor=none;align=left;verticalAlign=top;spacingLeft=4;spacingRight=4;overflow=hidden;rotatable=0;points=[[0,0.5],[1,0.5]];portConstraint=eastwest;whiteSpace=wrap;html=1;" vertex="1" parent="utYXCjNVVaFUY7Kg1UjY-9">
          <mxGeometry y="104" width="320" height="26" as="geometry" />
        </mxCell>
        <mxCell id="utYXCjNVVaFUY7Kg1UjY-11" value="" style="line;strokeWidth=1;fillColor=none;align=left;verticalAlign=middle;spacingTop=-1;spacingLeft=3;spacingRight=3;rotatable=0;labelPosition=right;points=[];portConstraint=eastwest;strokeColor=inherit;" vertex="1" parent="utYXCjNVVaFUY7Kg1UjY-9">
          <mxGeometry y="130" width="320" height="8" as="geometry" />
        </mxCell>
        <mxCell id="utYXCjNVVaFUY7Kg1UjY-12" value="+ getters and setters()" style="text;strokeColor=none;fillColor=none;align=left;verticalAlign=top;spacingLeft=4;spacingRight=4;overflow=hidden;rotatable=0;points=[[0,0.5],[1,0.5]];portConstraint=eastwest;whiteSpace=wrap;html=1;" vertex="1" parent="utYXCjNVVaFUY7Kg1UjY-9">
          <mxGeometry y="138" width="320" height="26" as="geometry" />
        </mxCell>
        <mxCell id="utYXCjNVVaFUY7Kg1UjY-15" value="Reaction" style="swimlane;fontStyle=1;align=center;verticalAlign=top;childLayout=stackLayout;horizontal=1;startSize=26;horizontalStack=0;resizeParent=1;resizeParentMax=0;resizeLast=0;collapsible=1;marginBottom=0;whiteSpace=wrap;html=1;" vertex="1" parent="WIyWlLk6GJQsqaUBKTNV-1">
          <mxGeometry x="114" y="910" width="320" height="216" as="geometry" />
        </mxCell>
        <mxCell id="utYXCjNVVaFUY7Kg1UjY-16" value="+ SMILE: &quot;:grinning face with smiling eyes:&quot;" style="text;strokeColor=none;fillColor=none;align=left;verticalAlign=top;spacingLeft=4;spacingRight=4;overflow=hidden;rotatable=0;points=[[0,0.5],[1,0.5]];portConstraint=eastwest;whiteSpace=wrap;html=1;" vertex="1" parent="utYXCjNVVaFUY7Kg1UjY-15">
          <mxGeometry y="26" width="320" height="26" as="geometry" />
        </mxCell>
        <mxCell id="utYXCjNVVaFUY7Kg1UjY-144" value="+ JOY: &quot;:face with tears of joy:&quot;" style="text;strokeColor=none;fillColor=none;align=left;verticalAlign=top;spacingLeft=4;spacingRight=4;overflow=hidden;rotatable=0;points=[[0,0.5],[1,0.5]];portConstraint=eastwest;whiteSpace=wrap;html=1;" vertex="1" parent="utYXCjNVVaFUY7Kg1UjY-15">
          <mxGeometry y="52" width="320" height="26" as="geometry" />
        </mxCell>
        <mxCell id="utYXCjNVVaFUY7Kg1UjY-143" value="+ FROWN: &quot;:frowning face:&quot;" style="text;strokeColor=none;fillColor=none;align=left;verticalAlign=top;spacingLeft=4;spacingRight=4;overflow=hidden;rotatable=0;points=[[0,0.5],[1,0.5]];portConstraint=eastwest;whiteSpace=wrap;html=1;" vertex="1" parent="utYXCjNVVaFUY7Kg1UjY-15">
          <mxGeometry y="78" width="320" height="26" as="geometry" />
        </mxCell>
        <mxCell id="utYXCjNVVaFUY7Kg1UjY-142" value="+ HEARTEYES: &quot;:smiling face with heart-eyes:&quot;" style="text;strokeColor=none;fillColor=none;align=left;verticalAlign=top;spacingLeft=4;spacingRight=4;overflow=hidden;rotatable=0;points=[[0,0.5],[1,0.5]];portConstraint=eastwest;whiteSpace=wrap;html=1;" vertex="1" parent="utYXCjNVVaFUY7Kg1UjY-15">
          <mxGeometry y="104" width="320" height="26" as="geometry" />
        </mxCell>
        <mxCell id="utYXCjNVVaFUY7Kg1UjY-145" value="+ TICK: &quot;:tick symbol:&quot;" style="text;strokeColor=none;fillColor=none;align=left;verticalAlign=top;spacingLeft=4;spacingRight=4;overflow=hidden;rotatable=0;points=[[0,0.5],[1,0.5]];portConstraint=eastwest;whiteSpace=wrap;html=1;" vertex="1" parent="utYXCjNVVaFUY7Kg1UjY-15">
          <mxGeometry y="130" width="320" height="26" as="geometry" />
        </mxCell>
        <mxCell id="utYXCjNVVaFUY7Kg1UjY-17" value="" style="line;strokeWidth=1;fillColor=none;align=left;verticalAlign=middle;spacingTop=-1;spacingLeft=3;spacingRight=3;rotatable=0;labelPosition=right;points=[];portConstraint=eastwest;strokeColor=inherit;" vertex="1" parent="utYXCjNVVaFUY7Kg1UjY-15">
          <mxGeometry y="156" width="320" height="8" as="geometry" />
        </mxCell>
        <mxCell id="utYXCjNVVaFUY7Kg1UjY-18" value="+ Reaction(String emoji)" style="text;strokeColor=none;fillColor=none;align=left;verticalAlign=top;spacingLeft=4;spacingRight=4;overflow=hidden;rotatable=0;points=[[0,0.5],[1,0.5]];portConstraint=eastwest;whiteSpace=wrap;html=1;" vertex="1" parent="utYXCjNVVaFUY7Kg1UjY-15">
          <mxGeometry y="164" width="320" height="26" as="geometry" />
        </mxCell>
        <mxCell id="utYXCjNVVaFUY7Kg1UjY-146" value="+ getters()" style="text;strokeColor=none;fillColor=none;align=left;verticalAlign=top;spacingLeft=4;spacingRight=4;overflow=hidden;rotatable=0;points=[[0,0.5],[1,0.5]];portConstraint=eastwest;whiteSpace=wrap;html=1;" vertex="1" parent="utYXCjNVVaFUY7Kg1UjY-15">
          <mxGeometry y="190" width="320" height="26" as="geometry" />
        </mxCell>
        <mxCell id="utYXCjNVVaFUY7Kg1UjY-19" value="Chatroom" style="swimlane;fontStyle=1;align=center;verticalAlign=top;childLayout=stackLayout;horizontal=1;startSize=26;horizontalStack=0;resizeParent=1;resizeParentMax=0;resizeLast=0;collapsible=1;marginBottom=0;whiteSpace=wrap;html=1;" vertex="1" parent="WIyWlLk6GJQsqaUBKTNV-1">
          <mxGeometry x="-470" y="40" width="490" height="268" as="geometry" />
        </mxCell>
        <mxCell id="utYXCjNVVaFUY7Kg1UjY-20" value="+ id: Long&amp;nbsp;" style="text;strokeColor=none;fillColor=none;align=left;verticalAlign=top;spacingLeft=4;spacingRight=4;overflow=hidden;rotatable=0;points=[[0,0.5],[1,0.5]];portConstraint=eastwest;whiteSpace=wrap;html=1;" vertex="1" parent="utYXCjNVVaFUY7Kg1UjY-19">
          <mxGeometry y="26" width="490" height="26" as="geometry" />
        </mxCell>
        <mxCell id="utYXCjNVVaFUY7Kg1UjY-46" value="+ name: String" style="text;strokeColor=none;fillColor=none;align=left;verticalAlign=top;spacingLeft=4;spacingRight=4;overflow=hidden;rotatable=0;points=[[0,0.5],[1,0.5]];portConstraint=eastwest;whiteSpace=wrap;html=1;" vertex="1" parent="utYXCjNVVaFUY7Kg1UjY-19">
          <mxGeometry y="52" width="490" height="26" as="geometry" />
        </mxCell>
        <mxCell id="utYXCjNVVaFUY7Kg1UjY-47" value="+ messages: List&amp;lt;Message&amp;gt;" style="text;strokeColor=none;fillColor=none;align=left;verticalAlign=top;spacingLeft=4;spacingRight=4;overflow=hidden;rotatable=0;points=[[0,0.5],[1,0.5]];portConstraint=eastwest;whiteSpace=wrap;html=1;" vertex="1" parent="utYXCjNVVaFUY7Kg1UjY-19">
          <mxGeometry y="78" width="490" height="26" as="geometry" />
        </mxCell>
        <mxCell id="utYXCjNVVaFUY7Kg1UjY-48" value="+ userChatroomAssociations: List&amp;lt;UserChatroomAssociation&amp;gt;" style="text;strokeColor=none;fillColor=none;align=left;verticalAlign=top;spacingLeft=4;spacingRight=4;overflow=hidden;rotatable=0;points=[[0,0.5],[1,0.5]];portConstraint=eastwest;whiteSpace=wrap;html=1;" vertex="1" parent="utYXCjNVVaFUY7Kg1UjY-19">
          <mxGeometry y="104" width="490" height="26" as="geometry" />
        </mxCell>
        <mxCell id="utYXCjNVVaFUY7Kg1UjY-21" value="" style="line;strokeWidth=1;fillColor=none;align=left;verticalAlign=middle;spacingTop=-1;spacingLeft=3;spacingRight=3;rotatable=0;labelPosition=right;points=[];portConstraint=eastwest;strokeColor=inherit;" vertex="1" parent="utYXCjNVVaFUY7Kg1UjY-19">
          <mxGeometry y="130" width="490" height="8" as="geometry" />
        </mxCell>
        <mxCell id="utYXCjNVVaFUY7Kg1UjY-22" value="+ addMessage(Message message): void&amp;nbsp;" style="text;strokeColor=none;fillColor=none;align=left;verticalAlign=top;spacingLeft=4;spacingRight=4;overflow=hidden;rotatable=0;points=[[0,0.5],[1,0.5]];portConstraint=eastwest;whiteSpace=wrap;html=1;" vertex="1" parent="utYXCjNVVaFUY7Kg1UjY-19">
          <mxGeometry y="138" width="490" height="26" as="geometry" />
        </mxCell>
        <mxCell id="utYXCjNVVaFUY7Kg1UjY-49" value="+ removeMessage(Message message): void&amp;nbsp;" style="text;strokeColor=none;fillColor=none;align=left;verticalAlign=top;spacingLeft=4;spacingRight=4;overflow=hidden;rotatable=0;points=[[0,0.5],[1,0.5]];portConstraint=eastwest;whiteSpace=wrap;html=1;" vertex="1" parent="utYXCjNVVaFUY7Kg1UjY-19">
          <mxGeometry y="164" width="490" height="26" as="geometry" />
        </mxCell>
        <mxCell id="utYXCjNVVaFUY7Kg1UjY-52" value="+ addUserChatroomAssociation(UserChatroomAssociation userChatroomAssociation)" style="text;strokeColor=none;fillColor=none;align=left;verticalAlign=top;spacingLeft=4;spacingRight=4;overflow=hidden;rotatable=0;points=[[0,0.5],[1,0.5]];portConstraint=eastwest;whiteSpace=wrap;html=1;" vertex="1" parent="utYXCjNVVaFUY7Kg1UjY-19">
          <mxGeometry y="190" width="490" height="26" as="geometry" />
        </mxCell>
        <mxCell id="utYXCjNVVaFUY7Kg1UjY-53" value="+ removeUserChatroomAssociation(UserChatroomAssociation userChatroomAssociation)" style="text;strokeColor=none;fillColor=none;align=left;verticalAlign=top;spacingLeft=4;spacingRight=4;overflow=hidden;rotatable=0;points=[[0,0.5],[1,0.5]];portConstraint=eastwest;whiteSpace=wrap;html=1;" vertex="1" parent="utYXCjNVVaFUY7Kg1UjY-19">
          <mxGeometry y="216" width="490" height="26" as="geometry" />
        </mxCell>
        <mxCell id="utYXCjNVVaFUY7Kg1UjY-54" value="+ getters and setters()" style="text;strokeColor=none;fillColor=none;align=left;verticalAlign=top;spacingLeft=4;spacingRight=4;overflow=hidden;rotatable=0;points=[[0,0.5],[1,0.5]];portConstraint=eastwest;whiteSpace=wrap;html=1;" vertex="1" parent="utYXCjNVVaFUY7Kg1UjY-19">
          <mxGeometry y="242" width="490" height="26" as="geometry" />
        </mxCell>
        <mxCell id="utYXCjNVVaFUY7Kg1UjY-23" value="UserChatroomAssociation" style="swimlane;fontStyle=1;align=center;verticalAlign=top;childLayout=stackLayout;horizontal=1;startSize=26;horizontalStack=0;resizeParent=1;resizeParentMax=0;resizeLast=0;collapsible=1;marginBottom=0;whiteSpace=wrap;html=1;" vertex="1" parent="WIyWlLk6GJQsqaUBKTNV-1">
          <mxGeometry x="-305" y="360" width="160" height="138" as="geometry">
            <mxRectangle x="-305" y="360" width="190" height="30" as="alternateBounds" />
          </mxGeometry>
        </mxCell>
        <mxCell id="utYXCjNVVaFUY7Kg1UjY-24" value="+ id: Long" style="text;strokeColor=none;fillColor=none;align=left;verticalAlign=top;spacingLeft=4;spacingRight=4;overflow=hidden;rotatable=0;points=[[0,0.5],[1,0.5]];portConstraint=eastwest;whiteSpace=wrap;html=1;" vertex="1" parent="utYXCjNVVaFUY7Kg1UjY-23">
          <mxGeometry y="26" width="160" height="26" as="geometry" />
        </mxCell>
        <mxCell id="utYXCjNVVaFUY7Kg1UjY-55" value="+ user: User" style="text;strokeColor=none;fillColor=none;align=left;verticalAlign=top;spacingLeft=4;spacingRight=4;overflow=hidden;rotatable=0;points=[[0,0.5],[1,0.5]];portConstraint=eastwest;whiteSpace=wrap;html=1;" vertex="1" parent="utYXCjNVVaFUY7Kg1UjY-23">
          <mxGeometry y="52" width="160" height="26" as="geometry" />
        </mxCell>
        <mxCell id="utYXCjNVVaFUY7Kg1UjY-56" value="+ chatroom: Chatroom" style="text;strokeColor=none;fillColor=none;align=left;verticalAlign=top;spacingLeft=4;spacingRight=4;overflow=hidden;rotatable=0;points=[[0,0.5],[1,0.5]];portConstraint=eastwest;whiteSpace=wrap;html=1;" vertex="1" parent="utYXCjNVVaFUY7Kg1UjY-23">
          <mxGeometry y="78" width="160" height="26" as="geometry" />
        </mxCell>
        <mxCell id="utYXCjNVVaFUY7Kg1UjY-25" value="" style="line;strokeWidth=1;fillColor=none;align=left;verticalAlign=middle;spacingTop=-1;spacingLeft=3;spacingRight=3;rotatable=0;labelPosition=right;points=[];portConstraint=eastwest;strokeColor=inherit;" vertex="1" parent="utYXCjNVVaFUY7Kg1UjY-23">
          <mxGeometry y="104" width="160" height="8" as="geometry" />
        </mxCell>
        <mxCell id="utYXCjNVVaFUY7Kg1UjY-26" value="+ getters and setters()" style="text;strokeColor=none;fillColor=none;align=left;verticalAlign=top;spacingLeft=4;spacingRight=4;overflow=hidden;rotatable=0;points=[[0,0.5],[1,0.5]];portConstraint=eastwest;whiteSpace=wrap;html=1;" vertex="1" parent="utYXCjNVVaFUY7Kg1UjY-23">
          <mxGeometry y="112" width="160" height="26" as="geometry" />
        </mxCell>
        <mxCell id="utYXCjNVVaFUY7Kg1UjY-28" value="Â«interfaceÂ»&lt;br&gt;&lt;b&gt;ChatroomRepository&lt;/b&gt;" style="html=1;whiteSpace=wrap;" vertex="1" parent="WIyWlLk6GJQsqaUBKTNV-1">
          <mxGeometry x="-1610" y="240" width="140" height="40" as="geometry" />
        </mxCell>
        <mxCell id="utYXCjNVVaFUY7Kg1UjY-29" value="Â«interfaceÂ»&lt;br&gt;&lt;b&gt;MessageRepository&lt;/b&gt;" style="html=1;whiteSpace=wrap;" vertex="1" parent="WIyWlLk6GJQsqaUBKTNV-1">
          <mxGeometry x="-1600" y="480" width="140" height="40" as="geometry" />
        </mxCell>
        <mxCell id="utYXCjNVVaFUY7Kg1UjY-30" value="Â«interfaceÂ»&lt;br&gt;&lt;b&gt;UserRepository&lt;/b&gt;" style="html=1;whiteSpace=wrap;" vertex="1" parent="WIyWlLk6GJQsqaUBKTNV-1">
          <mxGeometry x="-980" y="340" width="140" height="40" as="geometry" />
        </mxCell>
        <mxCell id="utYXCjNVVaFUY7Kg1UjY-31" value="Â«interfaceÂ»&lt;br&gt;&lt;b&gt;UserChatroomAssociationRepository&lt;/b&gt;" style="html=1;whiteSpace=wrap;" vertex="1" parent="WIyWlLk6GJQsqaUBKTNV-1">
          <mxGeometry x="-1060" y="770" width="220" height="40" as="geometry" />
        </mxCell>
        <mxCell id="utYXCjNVVaFUY7Kg1UjY-32" value="Â«interfaceÂ»&lt;br&gt;&lt;b&gt;MessageReactionRepository&lt;/b&gt;" style="html=1;whiteSpace=wrap;" vertex="1" parent="WIyWlLk6GJQsqaUBKTNV-1">
          <mxGeometry x="-1280" y="320" width="180" height="40" as="geometry" />
        </mxCell>
        <mxCell id="utYXCjNVVaFUY7Kg1UjY-34" value="ChatroomService" style="swimlane;fontStyle=1;align=center;verticalAlign=top;childLayout=stackLayout;horizontal=1;startSize=26;horizontalStack=0;resizeParent=1;resizeParentMax=0;resizeLast=0;collapsible=1;marginBottom=0;whiteSpace=wrap;html=1;" vertex="1" parent="WIyWlLk6GJQsqaUBKTNV-1">
          <mxGeometry x="-1380" y="116" width="320" height="164" as="geometry" />
        </mxCell>
        <mxCell id="utYXCjNVVaFUY7Kg1UjY-35" value="+ chatroomRepository ChatroomRepository" style="text;strokeColor=none;fillColor=none;align=left;verticalAlign=top;spacingLeft=4;spacingRight=4;overflow=hidden;rotatable=0;points=[[0,0.5],[1,0.5]];portConstraint=eastwest;whiteSpace=wrap;html=1;" vertex="1" parent="utYXCjNVVaFUY7Kg1UjY-34">
          <mxGeometry y="26" width="320" height="26" as="geometry" />
        </mxCell>
        <mxCell id="utYXCjNVVaFUY7Kg1UjY-63" value="+ messageRepository MessageRepository" style="text;strokeColor=none;fillColor=none;align=left;verticalAlign=top;spacingLeft=4;spacingRight=4;overflow=hidden;rotatable=0;points=[[0,0.5],[1,0.5]];portConstraint=eastwest;whiteSpace=wrap;html=1;" vertex="1" parent="utYXCjNVVaFUY7Kg1UjY-34">
          <mxGeometry y="52" width="320" height="26" as="geometry" />
        </mxCell>
        <mxCell id="utYXCjNVVaFUY7Kg1UjY-36" value="" style="line;strokeWidth=1;fillColor=none;align=left;verticalAlign=middle;spacingTop=-1;spacingLeft=3;spacingRight=3;rotatable=0;labelPosition=right;points=[];portConstraint=eastwest;strokeColor=inherit;" vertex="1" parent="utYXCjNVVaFUY7Kg1UjY-34">
          <mxGeometry y="78" width="320" height="8" as="geometry" />
        </mxCell>
        <mxCell id="utYXCjNVVaFUY7Kg1UjY-64" value="+ addChatroom(Chatroom chatroom)" style="text;strokeColor=none;fillColor=none;align=left;verticalAlign=top;spacingLeft=4;spacingRight=4;overflow=hidden;rotatable=0;points=[[0,0.5],[1,0.5]];portConstraint=eastwest;whiteSpace=wrap;html=1;" vertex="1" parent="utYXCjNVVaFUY7Kg1UjY-34">
          <mxGeometry y="86" width="320" height="26" as="geometry" />
        </mxCell>
        <mxCell id="utYXCjNVVaFUY7Kg1UjY-68" value="+ createNewChatroom(ChatrooomDTO chatroomDTO)" style="text;strokeColor=none;fillColor=none;align=left;verticalAlign=top;spacingLeft=4;spacingRight=4;overflow=hidden;rotatable=0;points=[[0,0.5],[1,0.5]];portConstraint=eastwest;whiteSpace=wrap;html=1;" vertex="1" parent="utYXCjNVVaFUY7Kg1UjY-34">
          <mxGeometry y="112" width="320" height="26" as="geometry" />
        </mxCell>
        <mxCell id="utYXCjNVVaFUY7Kg1UjY-69" value="+ getters()" style="text;strokeColor=none;fillColor=none;align=left;verticalAlign=top;spacingLeft=4;spacingRight=4;overflow=hidden;rotatable=0;points=[[0,0.5],[1,0.5]];portConstraint=eastwest;whiteSpace=wrap;html=1;" vertex="1" parent="utYXCjNVVaFUY7Kg1UjY-34">
          <mxGeometry y="138" width="320" height="26" as="geometry" />
        </mxCell>
        <mxCell id="utYXCjNVVaFUY7Kg1UjY-38" value="MessageService" style="swimlane;fontStyle=1;align=center;verticalAlign=top;childLayout=stackLayout;horizontal=1;startSize=26;horizontalStack=0;resizeParent=1;resizeParentMax=0;resizeLast=0;collapsible=1;marginBottom=0;whiteSpace=wrap;html=1;" vertex="1" parent="WIyWlLk6GJQsqaUBKTNV-1">
          <mxGeometry x="-1650" y="600" width="250" height="120" as="geometry" />
        </mxCell>
        <mxCell id="utYXCjNVVaFUY7Kg1UjY-39" value="+ messageRepository: MessageRepository" style="text;strokeColor=none;fillColor=none;align=left;verticalAlign=top;spacingLeft=4;spacingRight=4;overflow=hidden;rotatable=0;points=[[0,0.5],[1,0.5]];portConstraint=eastwest;whiteSpace=wrap;html=1;" vertex="1" parent="utYXCjNVVaFUY7Kg1UjY-38">
          <mxGeometry y="26" width="250" height="26" as="geometry" />
        </mxCell>
        <mxCell id="utYXCjNVVaFUY7Kg1UjY-40" value="" style="line;strokeWidth=1;fillColor=none;align=left;verticalAlign=middle;spacingTop=-1;spacingLeft=3;spacingRight=3;rotatable=0;labelPosition=right;points=[];portConstraint=eastwest;strokeColor=inherit;" vertex="1" parent="utYXCjNVVaFUY7Kg1UjY-38">
          <mxGeometry y="52" width="250" height="8" as="geometry" />
        </mxCell>
        <mxCell id="utYXCjNVVaFUY7Kg1UjY-41" value="+ addMessage(Message message)" style="text;strokeColor=none;fillColor=none;align=left;verticalAlign=top;spacingLeft=4;spacingRight=4;overflow=hidden;rotatable=0;points=[[0,0.5],[1,0.5]];portConstraint=eastwest;whiteSpace=wrap;html=1;" vertex="1" parent="utYXCjNVVaFUY7Kg1UjY-38">
          <mxGeometry y="60" width="250" height="30" as="geometry" />
        </mxCell>
        <mxCell id="utYXCjNVVaFUY7Kg1UjY-73" value="+ getters()" style="text;strokeColor=none;fillColor=none;align=left;verticalAlign=top;spacingLeft=4;spacingRight=4;overflow=hidden;rotatable=0;points=[[0,0.5],[1,0.5]];portConstraint=eastwest;whiteSpace=wrap;html=1;" vertex="1" parent="utYXCjNVVaFUY7Kg1UjY-38">
          <mxGeometry y="90" width="250" height="30" as="geometry" />
        </mxCell>
        <mxCell id="utYXCjNVVaFUY7Kg1UjY-42" value="UserService" style="swimlane;fontStyle=1;align=center;verticalAlign=top;childLayout=stackLayout;horizontal=1;startSize=26;horizontalStack=0;resizeParent=1;resizeParentMax=0;resizeLast=0;collapsible=1;marginBottom=0;whiteSpace=wrap;html=1;" vertex="1" parent="WIyWlLk6GJQsqaUBKTNV-1">
          <mxGeometry x="-1380" y="400" width="470" height="344" as="geometry" />
        </mxCell>
        <mxCell id="utYXCjNVVaFUY7Kg1UjY-43" value="+ userRepository: UserRepository" style="text;strokeColor=none;fillColor=none;align=left;verticalAlign=top;spacingLeft=4;spacingRight=4;overflow=hidden;rotatable=0;points=[[0,0.5],[1,0.5]];portConstraint=eastwest;whiteSpace=wrap;html=1;" vertex="1" parent="utYXCjNVVaFUY7Kg1UjY-42">
          <mxGeometry y="26" width="470" height="26" as="geometry" />
        </mxCell>
        <mxCell id="utYXCjNVVaFUY7Kg1UjY-87" value="+ chatroomRepository: ChatroomRepository" style="text;strokeColor=none;fillColor=none;align=left;verticalAlign=top;spacingLeft=4;spacingRight=4;overflow=hidden;rotatable=0;points=[[0,0.5],[1,0.5]];portConstraint=eastwest;whiteSpace=wrap;html=1;" vertex="1" parent="utYXCjNVVaFUY7Kg1UjY-42">
          <mxGeometry y="52" width="470" height="26" as="geometry" />
        </mxCell>
        <mxCell id="utYXCjNVVaFUY7Kg1UjY-86" value="+ messageRepository: MessageRepository" style="text;strokeColor=none;fillColor=none;align=left;verticalAlign=top;spacingLeft=4;spacingRight=4;overflow=hidden;rotatable=0;points=[[0,0.5],[1,0.5]];portConstraint=eastwest;whiteSpace=wrap;html=1;" vertex="1" parent="utYXCjNVVaFUY7Kg1UjY-42">
          <mxGeometry y="78" width="470" height="26" as="geometry" />
        </mxCell>
        <mxCell id="utYXCjNVVaFUY7Kg1UjY-85" value="+ userChatroomAssociationRepository: UserChatroomAssociationRepository" style="text;strokeColor=none;fillColor=none;align=left;verticalAlign=top;spacingLeft=4;spacingRight=4;overflow=hidden;rotatable=0;points=[[0,0.5],[1,0.5]];portConstraint=eastwest;whiteSpace=wrap;html=1;" vertex="1" parent="utYXCjNVVaFUY7Kg1UjY-42">
          <mxGeometry y="104" width="470" height="26" as="geometry" />
        </mxCell>
        <mxCell id="utYXCjNVVaFUY7Kg1UjY-88" value="+ messageReactionRepository: MessageReactionRepository&amp;nbsp;" style="text;strokeColor=none;fillColor=none;align=left;verticalAlign=top;spacingLeft=4;spacingRight=4;overflow=hidden;rotatable=0;points=[[0,0.5],[1,0.5]];portConstraint=eastwest;whiteSpace=wrap;html=1;" vertex="1" parent="utYXCjNVVaFUY7Kg1UjY-42">
          <mxGeometry y="130" width="470" height="26" as="geometry" />
        </mxCell>
        <mxCell id="utYXCjNVVaFUY7Kg1UjY-44" value="" style="line;strokeWidth=1;fillColor=none;align=left;verticalAlign=middle;spacingTop=-1;spacingLeft=3;spacingRight=3;rotatable=0;labelPosition=right;points=[];portConstraint=eastwest;strokeColor=inherit;" vertex="1" parent="utYXCjNVVaFUY7Kg1UjY-42">
          <mxGeometry y="156" width="470" height="8" as="geometry" />
        </mxCell>
        <mxCell id="utYXCjNVVaFUY7Kg1UjY-45" value="+ addUser(User user)&lt;br&gt;" style="text;strokeColor=none;fillColor=none;align=left;verticalAlign=top;spacingLeft=4;spacingRight=4;overflow=hidden;rotatable=0;points=[[0,0.5],[1,0.5]];portConstraint=eastwest;whiteSpace=wrap;html=1;" vertex="1" parent="utYXCjNVVaFUY7Kg1UjY-42">
          <mxGeometry y="164" width="470" height="30" as="geometry" />
        </mxCell>
        <mxCell id="utYXCjNVVaFUY7Kg1UjY-82" value="+ deleteUser(Long id)" style="text;strokeColor=none;fillColor=none;align=left;verticalAlign=top;spacingLeft=4;spacingRight=4;overflow=hidden;rotatable=0;points=[[0,0.5],[1,0.5]];portConstraint=eastwest;whiteSpace=wrap;html=1;" vertex="1" parent="utYXCjNVVaFUY7Kg1UjY-42">
          <mxGeometry y="194" width="470" height="30" as="geometry" />
        </mxCell>
        <mxCell id="utYXCjNVVaFUY7Kg1UjY-81" value="+ userSendMessage(Long chatroomId, MessageContentDTO messageContentDTO)" style="text;strokeColor=none;fillColor=none;align=left;verticalAlign=top;spacingLeft=4;spacingRight=4;overflow=hidden;rotatable=0;points=[[0,0.5],[1,0.5]];portConstraint=eastwest;whiteSpace=wrap;html=1;" vertex="1" parent="utYXCjNVVaFUY7Kg1UjY-42">
          <mxGeometry y="224" width="470" height="30" as="geometry" />
        </mxCell>
        <mxCell id="utYXCjNVVaFUY7Kg1UjY-80" value="+ addUserToChatroom(Long userId, Long chatroomId)" style="text;strokeColor=none;fillColor=none;align=left;verticalAlign=top;spacingLeft=4;spacingRight=4;overflow=hidden;rotatable=0;points=[[0,0.5],[1,0.5]];portConstraint=eastwest;whiteSpace=wrap;html=1;" vertex="1" parent="utYXCjNVVaFUY7Kg1UjY-42">
          <mxGeometry y="254" width="470" height="30" as="geometry" />
        </mxCell>
        <mxCell id="utYXCjNVVaFUY7Kg1UjY-83" value="+ createNewUser(UserDTO userDTO)" style="text;strokeColor=none;fillColor=none;align=left;verticalAlign=top;spacingLeft=4;spacingRight=4;overflow=hidden;rotatable=0;points=[[0,0.5],[1,0.5]];portConstraint=eastwest;whiteSpace=wrap;html=1;" vertex="1" parent="utYXCjNVVaFUY7Kg1UjY-42">
          <mxGeometry y="284" width="470" height="30" as="geometry" />
        </mxCell>
        <mxCell id="utYXCjNVVaFUY7Kg1UjY-84" value="+ updateUser(Long id, UserDTO userDTO)" style="text;strokeColor=none;fillColor=none;align=left;verticalAlign=top;spacingLeft=4;spacingRight=4;overflow=hidden;rotatable=0;points=[[0,0.5],[1,0.5]];portConstraint=eastwest;whiteSpace=wrap;html=1;" vertex="1" parent="utYXCjNVVaFUY7Kg1UjY-42">
          <mxGeometry y="314" width="470" height="30" as="geometry" />
        </mxCell>
        <mxCell id="utYXCjNVVaFUY7Kg1UjY-58" value="Use" style="endArrow=open;endSize=12;dashed=1;html=1;rounded=0;" edge="1" parent="WIyWlLk6GJQsqaUBKTNV-1">
          <mxGeometry width="160" relative="1" as="geometry">
            <mxPoint x="-230" y="360" as="sourcePoint" />
            <mxPoint x="-230" y="308" as="targetPoint" />
          </mxGeometry>
        </mxCell>
        <mxCell id="utYXCjNVVaFUY7Kg1UjY-59" value="Use" style="endArrow=open;endSize=12;dashed=1;html=1;rounded=0;" edge="1" parent="WIyWlLk6GJQsqaUBKTNV-1">
          <mxGeometry width="160" relative="1" as="geometry">
            <mxPoint x="-225.51" y="498" as="sourcePoint" />
            <mxPoint x="-226" y="560" as="targetPoint" />
          </mxGeometry>
        </mxCell>
        <mxCell id="utYXCjNVVaFUY7Kg1UjY-60" value="" style="endArrow=diamondThin;endFill=1;endSize=24;html=1;rounded=0;entryX=0.796;entryY=0.231;entryDx=0;entryDy=0;entryPerimeter=0;exitX=0;exitY=0.5;exitDx=0;exitDy=0;" edge="1" parent="WIyWlLk6GJQsqaUBKTNV-1" source="utYXCjNVVaFUY7Kg1UjY-0">
          <mxGeometry width="160" relative="1" as="geometry">
            <mxPoint x="109.96" y="718.47" as="sourcePoint" />
            <mxPoint x="9.999999999999957" y="718.4760000000001" as="targetPoint" />
          </mxGeometry>
        </mxCell>
        <mxCell id="utYXCjNVVaFUY7Kg1UjY-61" value="Use" style="endArrow=open;endSize=12;dashed=1;html=1;rounded=0;entryX=0.535;entryY=1.121;entryDx=0;entryDy=0;entryPerimeter=0;" edge="1" parent="WIyWlLk6GJQsqaUBKTNV-1" target="utYXCjNVVaFUY7Kg1UjY-5">
          <mxGeometry width="160" relative="1" as="geometry">
            <mxPoint x="275" y="690" as="sourcePoint" />
            <mxPoint x="370" y="660" as="targetPoint" />
          </mxGeometry>
        </mxCell>
        <mxCell id="utYXCjNVVaFUY7Kg1UjY-70" value="Use" style="endArrow=open;endSize=12;dashed=1;html=1;rounded=0;exitX=-0.017;exitY=1.085;exitDx=0;exitDy=0;exitPerimeter=0;" edge="1" parent="WIyWlLk6GJQsqaUBKTNV-1" source="utYXCjNVVaFUY7Kg1UjY-69">
          <mxGeometry x="0.2798" y="-2" width="160" relative="1" as="geometry">
            <mxPoint x="-1400" y="280" as="sourcePoint" />
            <mxPoint x="-1460" y="473" as="targetPoint" />
            <mxPoint as="offset" />
          </mxGeometry>
        </mxCell>
        <mxCell id="utYXCjNVVaFUY7Kg1UjY-71" value="Use" style="endArrow=open;endSize=12;dashed=1;html=1;rounded=0;exitX=-0.01;exitY=0.229;exitDx=0;exitDy=0;entryX=1;entryY=0;entryDx=0;entryDy=0;exitPerimeter=0;" edge="1" parent="WIyWlLk6GJQsqaUBKTNV-1" source="utYXCjNVVaFUY7Kg1UjY-64" target="utYXCjNVVaFUY7Kg1UjY-28">
          <mxGeometry width="160" relative="1" as="geometry">
            <mxPoint x="-930" y="430" as="sourcePoint" />
            <mxPoint x="-970" y="290" as="targetPoint" />
          </mxGeometry>
        </mxCell>
        <mxCell id="utYXCjNVVaFUY7Kg1UjY-72" value="Use" style="endArrow=open;endSize=12;dashed=1;html=1;rounded=0;exitX=0.482;exitY=-0.052;exitDx=0;exitDy=0;exitPerimeter=0;" edge="1" parent="WIyWlLk6GJQsqaUBKTNV-1" source="utYXCjNVVaFUY7Kg1UjY-38">
          <mxGeometry width="160" relative="1" as="geometry">
            <mxPoint x="-1530" y="590" as="sourcePoint" />
            <mxPoint x="-1530" y="520" as="targetPoint" />
          </mxGeometry>
        </mxCell>
        <mxCell id="utYXCjNVVaFUY7Kg1UjY-75" value="Use" style="endArrow=open;endSize=12;dashed=1;html=1;rounded=0;entryX=0.5;entryY=1;entryDx=0;entryDy=0;exitX=0.431;exitY=-0.01;exitDx=0;exitDy=0;exitPerimeter=0;" edge="1" parent="WIyWlLk6GJQsqaUBKTNV-1" source="utYXCjNVVaFUY7Kg1UjY-42" target="utYXCjNVVaFUY7Kg1UjY-32">
          <mxGeometry x="-0.0087" width="160" relative="1" as="geometry">
            <mxPoint x="-1240" y="430" as="sourcePoint" />
            <mxPoint x="-1080" y="430" as="targetPoint" />
            <mxPoint as="offset" />
          </mxGeometry>
        </mxCell>
        <mxCell id="utYXCjNVVaFUY7Kg1UjY-77" value="Use" style="endArrow=open;endSize=12;dashed=1;html=1;rounded=0;entryX=0.401;entryY=-0.051;entryDx=0;entryDy=0;entryPerimeter=0;" edge="1" parent="WIyWlLk6GJQsqaUBKTNV-1" target="utYXCjNVVaFUY7Kg1UjY-31">
          <mxGeometry x="-0.0833" y="1" width="160" relative="1" as="geometry">
            <mxPoint x="-1020" y="744" as="sourcePoint" />
            <mxPoint x="-1000" y="810" as="targetPoint" />
            <mxPoint as="offset" />
          </mxGeometry>
        </mxCell>
        <mxCell id="utYXCjNVVaFUY7Kg1UjY-78" value="Use" style="endArrow=open;endSize=12;dashed=1;html=1;rounded=0;entryX=1;entryY=0.75;entryDx=0;entryDy=0;exitX=-0.006;exitY=0.249;exitDx=0;exitDy=0;exitPerimeter=0;" edge="1" parent="WIyWlLk6GJQsqaUBKTNV-1" source="utYXCjNVVaFUY7Kg1UjY-45" target="utYXCjNVVaFUY7Kg1UjY-29">
          <mxGeometry width="160" relative="1" as="geometry">
            <mxPoint x="-1380" y="528" as="sourcePoint" />
            <mxPoint x="-1470" y="498" as="targetPoint" />
          </mxGeometry>
        </mxCell>
        <mxCell id="utYXCjNVVaFUY7Kg1UjY-79" value="Use" style="endArrow=open;endSize=12;dashed=1;html=1;rounded=0;exitX=0;exitY=0;exitDx=0;exitDy=0;entryX=0.101;entryY=1.161;entryDx=0;entryDy=0;entryPerimeter=0;" edge="1" parent="WIyWlLk6GJQsqaUBKTNV-1" source="utYXCjNVVaFUY7Kg1UjY-42" target="utYXCjNVVaFUY7Kg1UjY-28">
          <mxGeometry width="160" relative="1" as="geometry">
            <mxPoint x="-1090" y="400" as="sourcePoint" />
            <mxPoint x="-1030" y="324" as="targetPoint" />
          </mxGeometry>
        </mxCell>
        <mxCell id="utYXCjNVVaFUY7Kg1UjY-89" value="ChatroomDTO" style="swimlane;fontStyle=1;align=center;verticalAlign=top;childLayout=stackLayout;horizontal=1;startSize=26;horizontalStack=0;resizeParent=1;resizeParentMax=0;resizeLast=0;collapsible=1;marginBottom=0;whiteSpace=wrap;html=1;" vertex="1" parent="WIyWlLk6GJQsqaUBKTNV-1">
          <mxGeometry x="-1640" y="40" width="210" height="112" as="geometry" />
        </mxCell>
        <mxCell id="utYXCjNVVaFUY7Kg1UjY-90" value="+ id: Long" style="text;strokeColor=none;fillColor=none;align=left;verticalAlign=top;spacingLeft=4;spacingRight=4;overflow=hidden;rotatable=0;points=[[0,0.5],[1,0.5]];portConstraint=eastwest;whiteSpace=wrap;html=1;" vertex="1" parent="utYXCjNVVaFUY7Kg1UjY-89">
          <mxGeometry y="26" width="210" height="26" as="geometry" />
        </mxCell>
        <mxCell id="utYXCjNVVaFUY7Kg1UjY-93" value="+ name: String&amp;nbsp;" style="text;strokeColor=none;fillColor=none;align=left;verticalAlign=top;spacingLeft=4;spacingRight=4;overflow=hidden;rotatable=0;points=[[0,0.5],[1,0.5]];portConstraint=eastwest;whiteSpace=wrap;html=1;" vertex="1" parent="utYXCjNVVaFUY7Kg1UjY-89">
          <mxGeometry y="52" width="210" height="26" as="geometry" />
        </mxCell>
        <mxCell id="utYXCjNVVaFUY7Kg1UjY-91" value="" style="line;strokeWidth=1;fillColor=none;align=left;verticalAlign=middle;spacingTop=-1;spacingLeft=3;spacingRight=3;rotatable=0;labelPosition=right;points=[];portConstraint=eastwest;strokeColor=inherit;" vertex="1" parent="utYXCjNVVaFUY7Kg1UjY-89">
          <mxGeometry y="78" width="210" height="8" as="geometry" />
        </mxCell>
        <mxCell id="utYXCjNVVaFUY7Kg1UjY-92" value="+ getters and setters()" style="text;strokeColor=none;fillColor=none;align=left;verticalAlign=top;spacingLeft=4;spacingRight=4;overflow=hidden;rotatable=0;points=[[0,0.5],[1,0.5]];portConstraint=eastwest;whiteSpace=wrap;html=1;" vertex="1" parent="utYXCjNVVaFUY7Kg1UjY-89">
          <mxGeometry y="86" width="210" height="26" as="geometry" />
        </mxCell>
        <mxCell id="utYXCjNVVaFUY7Kg1UjY-94" value="Use" style="endArrow=open;endSize=12;dashed=1;html=1;rounded=0;entryX=0.5;entryY=1;entryDx=0;entryDy=0;" edge="1" parent="WIyWlLk6GJQsqaUBKTNV-1">
          <mxGeometry width="160" relative="1" as="geometry">
            <mxPoint x="-1380" y="188" as="sourcePoint" />
            <mxPoint x="-1430.1" y="140" as="targetPoint" />
          </mxGeometry>
        </mxCell>
        <mxCell id="utYXCjNVVaFUY7Kg1UjY-95" value="Use" style="endArrow=open;endSize=12;dashed=1;html=1;rounded=0;exitX=0.83;exitY=-0.013;exitDx=0;exitDy=0;exitPerimeter=0;entryX=0;entryY=0.75;entryDx=0;entryDy=0;" edge="1" parent="WIyWlLk6GJQsqaUBKTNV-1" target="utYXCjNVVaFUY7Kg1UjY-30">
          <mxGeometry width="160" relative="1" as="geometry">
            <mxPoint x="-1010" y="400" as="sourcePoint" />
            <mxPoint x="-990" y="370" as="targetPoint" />
          </mxGeometry>
        </mxCell>
        <mxCell id="utYXCjNVVaFUY7Kg1UjY-96" value="Use" style="endArrow=open;endSize=12;dashed=1;html=1;rounded=0;entryX=-0.011;entryY=1.025;entryDx=0;entryDy=0;entryPerimeter=0;" edge="1" parent="WIyWlLk6GJQsqaUBKTNV-1" target="utYXCjNVVaFUY7Kg1UjY-101">
          <mxGeometry x="0.2798" y="-2" width="160" relative="1" as="geometry">
            <mxPoint x="-1230" y="116" as="sourcePoint" />
            <mxPoint x="-1230" y="-4" as="targetPoint" />
            <mxPoint as="offset" />
          </mxGeometry>
        </mxCell>
        <mxCell id="utYXCjNVVaFUY7Kg1UjY-97" value="Use" style="endArrow=open;endSize=12;dashed=1;html=1;rounded=0;exitX=0.694;exitY=-0.004;exitDx=0;exitDy=0;exitPerimeter=0;" edge="1" parent="WIyWlLk6GJQsqaUBKTNV-1" source="utYXCjNVVaFUY7Kg1UjY-42" target="utYXCjNVVaFUY7Kg1UjY-98">
          <mxGeometry width="160" relative="1" as="geometry">
            <mxPoint x="-804" y="224" as="sourcePoint" />
            <mxPoint x="-990" y="60" as="targetPoint" />
          </mxGeometry>
        </mxCell>
        <mxCell id="utYXCjNVVaFUY7Kg1UjY-98" value="ChatroomController" style="swimlane;fontStyle=1;align=center;verticalAlign=top;childLayout=stackLayout;horizontal=1;startSize=26;horizontalStack=0;resizeParent=1;resizeParentMax=0;resizeLast=0;collapsible=1;marginBottom=0;whiteSpace=wrap;html=1;" vertex="1" parent="WIyWlLk6GJQsqaUBKTNV-1">
          <mxGeometry x="-1150" y="-120" width="260" height="130" as="geometry" />
        </mxCell>
        <mxCell id="utYXCjNVVaFUY7Kg1UjY-99" value="+ chatroomService: ChatroomService" style="text;strokeColor=none;fillColor=none;align=left;verticalAlign=top;spacingLeft=4;spacingRight=4;overflow=hidden;rotatable=0;points=[[0,0.5],[1,0.5]];portConstraint=eastwest;whiteSpace=wrap;html=1;" vertex="1" parent="utYXCjNVVaFUY7Kg1UjY-98">
          <mxGeometry y="26" width="260" height="26" as="geometry" />
        </mxCell>
        <mxCell id="utYXCjNVVaFUY7Kg1UjY-103" value="+ userService: UserService" style="text;strokeColor=none;fillColor=none;align=left;verticalAlign=top;spacingLeft=4;spacingRight=4;overflow=hidden;rotatable=0;points=[[0,0.5],[1,0.5]];portConstraint=eastwest;whiteSpace=wrap;html=1;" vertex="1" parent="utYXCjNVVaFUY7Kg1UjY-98">
          <mxGeometry y="52" width="260" height="26" as="geometry" />
        </mxCell>
        <mxCell id="utYXCjNVVaFUY7Kg1UjY-100" value="" style="line;strokeWidth=1;fillColor=none;align=left;verticalAlign=middle;spacingTop=-1;spacingLeft=3;spacingRight=3;rotatable=0;labelPosition=right;points=[];portConstraint=eastwest;strokeColor=inherit;" vertex="1" parent="utYXCjNVVaFUY7Kg1UjY-98">
          <mxGeometry y="78" width="260" height="8" as="geometry" />
        </mxCell>
        <mxCell id="utYXCjNVVaFUY7Kg1UjY-101" value="+ ResponseEntity&amp;lt;&amp;gt; methods found in chatroomService and userService" style="text;strokeColor=none;fillColor=none;align=left;verticalAlign=top;spacingLeft=4;spacingRight=4;overflow=hidden;rotatable=0;points=[[0,0.5],[1,0.5]];portConstraint=eastwest;whiteSpace=wrap;html=1;" vertex="1" parent="utYXCjNVVaFUY7Kg1UjY-98">
          <mxGeometry y="86" width="260" height="44" as="geometry" />
        </mxCell>
        <mxCell id="utYXCjNVVaFUY7Kg1UjY-104" value="MessageController" style="swimlane;fontStyle=1;align=center;verticalAlign=top;childLayout=stackLayout;horizontal=1;startSize=26;horizontalStack=0;resizeParent=1;resizeParentMax=0;resizeLast=0;collapsible=1;marginBottom=0;whiteSpace=wrap;html=1;" vertex="1" parent="WIyWlLk6GJQsqaUBKTNV-1">
          <mxGeometry x="-1635" y="840" width="235" height="130" as="geometry" />
        </mxCell>
        <mxCell id="utYXCjNVVaFUY7Kg1UjY-105" value="+ messageService: MessageService" style="text;strokeColor=none;fillColor=none;align=left;verticalAlign=top;spacingLeft=4;spacingRight=4;overflow=hidden;rotatable=0;points=[[0,0.5],[1,0.5]];portConstraint=eastwest;whiteSpace=wrap;html=1;" vertex="1" parent="utYXCjNVVaFUY7Kg1UjY-104">
          <mxGeometry y="26" width="235" height="26" as="geometry" />
        </mxCell>
        <mxCell id="utYXCjNVVaFUY7Kg1UjY-111" value="+ userService: UserService" style="text;strokeColor=none;fillColor=none;align=left;verticalAlign=top;spacingLeft=4;spacingRight=4;overflow=hidden;rotatable=0;points=[[0,0.5],[1,0.5]];portConstraint=eastwest;whiteSpace=wrap;html=1;" vertex="1" parent="utYXCjNVVaFUY7Kg1UjY-104">
          <mxGeometry y="52" width="235" height="26" as="geometry" />
        </mxCell>
        <mxCell id="utYXCjNVVaFUY7Kg1UjY-106" value="" style="line;strokeWidth=1;fillColor=none;align=left;verticalAlign=middle;spacingTop=-1;spacingLeft=3;spacingRight=3;rotatable=0;labelPosition=right;points=[];portConstraint=eastwest;strokeColor=inherit;" vertex="1" parent="utYXCjNVVaFUY7Kg1UjY-104">
          <mxGeometry y="78" width="235" height="8" as="geometry" />
        </mxCell>
        <mxCell id="utYXCjNVVaFUY7Kg1UjY-107" value="+ ResponseEntity&amp;lt;&amp;gt; methods found in messageService and userService" style="text;strokeColor=none;fillColor=none;align=left;verticalAlign=top;spacingLeft=4;spacingRight=4;overflow=hidden;rotatable=0;points=[[0,0.5],[1,0.5]];portConstraint=eastwest;whiteSpace=wrap;html=1;" vertex="1" parent="utYXCjNVVaFUY7Kg1UjY-104">
          <mxGeometry y="86" width="235" height="44" as="geometry" />
        </mxCell>
        <mxCell id="utYXCjNVVaFUY7Kg1UjY-109" value="Use" style="endArrow=open;endSize=12;dashed=1;html=1;rounded=0;entryX=0.5;entryY=0;entryDx=0;entryDy=0;exitX=0.515;exitY=1.16;exitDx=0;exitDy=0;exitPerimeter=0;" edge="1" parent="WIyWlLk6GJQsqaUBKTNV-1" source="utYXCjNVVaFUY7Kg1UjY-73" target="utYXCjNVVaFUY7Kg1UjY-104">
          <mxGeometry width="160" relative="1" as="geometry">
            <mxPoint x="-1460" y="735.9600000000005" as="sourcePoint" />
            <mxPoint x="-1560.9" y="949.6339999999996" as="targetPoint" />
          </mxGeometry>
        </mxCell>
        <mxCell id="utYXCjNVVaFUY7Kg1UjY-110" value="Use" style="endArrow=open;endSize=12;dashed=1;html=1;rounded=0;entryX=1.017;entryY=-0.128;entryDx=0;entryDy=0;entryPerimeter=0;exitX=0.022;exitY=1.132;exitDx=0;exitDy=0;exitPerimeter=0;" edge="1" parent="WIyWlLk6GJQsqaUBKTNV-1" target="utYXCjNVVaFUY7Kg1UjY-105">
          <mxGeometry x="0.0029" width="160" relative="1" as="geometry">
            <mxPoint x="-1369.44" y="746" as="sourcePoint" />
            <mxPoint x="-1470.44" y="960" as="targetPoint" />
            <mxPoint as="offset" />
          </mxGeometry>
        </mxCell>
        <mxCell id="utYXCjNVVaFUY7Kg1UjY-112" value="Use" style="endArrow=open;endSize=12;dashed=1;html=1;rounded=0;exitX=0.515;exitY=1.16;exitDx=0;exitDy=0;exitPerimeter=0;" edge="1" parent="WIyWlLk6GJQsqaUBKTNV-1" target="utYXCjNVVaFUY7Kg1UjY-113">
          <mxGeometry width="160" relative="1" as="geometry">
            <mxPoint x="-1200" y="744" as="sourcePoint" />
            <mxPoint x="-1170" y="930" as="targetPoint" />
          </mxGeometry>
        </mxCell>
        <mxCell id="utYXCjNVVaFUY7Kg1UjY-113" value="UserController" style="swimlane;fontStyle=1;align=center;verticalAlign=top;childLayout=stackLayout;horizontal=1;startSize=26;horizontalStack=0;resizeParent=1;resizeParentMax=0;resizeLast=0;collapsible=1;marginBottom=0;whiteSpace=wrap;html=1;" vertex="1" parent="WIyWlLk6GJQsqaUBKTNV-1">
          <mxGeometry x="-1320" y="855" width="260" height="100" as="geometry" />
        </mxCell>
        <mxCell id="utYXCjNVVaFUY7Kg1UjY-114" value="+ userService: UserService" style="text;strokeColor=none;fillColor=none;align=left;verticalAlign=top;spacingLeft=4;spacingRight=4;overflow=hidden;rotatable=0;points=[[0,0.5],[1,0.5]];portConstraint=eastwest;whiteSpace=wrap;html=1;" vertex="1" parent="utYXCjNVVaFUY7Kg1UjY-113">
          <mxGeometry y="26" width="260" height="26" as="geometry" />
        </mxCell>
        <mxCell id="utYXCjNVVaFUY7Kg1UjY-115" value="" style="line;strokeWidth=1;fillColor=none;align=left;verticalAlign=middle;spacingTop=-1;spacingLeft=3;spacingRight=3;rotatable=0;labelPosition=right;points=[];portConstraint=eastwest;strokeColor=inherit;" vertex="1" parent="utYXCjNVVaFUY7Kg1UjY-113">
          <mxGeometry y="52" width="260" height="8" as="geometry" />
        </mxCell>
        <mxCell id="utYXCjNVVaFUY7Kg1UjY-116" value="+ ResponseEntity&amp;lt;&amp;gt; methods found in userService" style="text;strokeColor=none;fillColor=none;align=left;verticalAlign=top;spacingLeft=4;spacingRight=4;overflow=hidden;rotatable=0;points=[[0,0.5],[1,0.5]];portConstraint=eastwest;whiteSpace=wrap;html=1;" vertex="1" parent="utYXCjNVVaFUY7Kg1UjY-113">
          <mxGeometry y="60" width="260" height="40" as="geometry" />
        </mxCell>
        <mxCell id="utYXCjNVVaFUY7Kg1UjY-117" value="Use" style="endArrow=open;endSize=12;dashed=1;html=1;rounded=0;exitX=0.022;exitY=1.132;exitDx=0;exitDy=0;exitPerimeter=0;" edge="1" parent="WIyWlLk6GJQsqaUBKTNV-1" target="utYXCjNVVaFUY7Kg1UjY-118">
          <mxGeometry x="0.0029" width="160" relative="1" as="geometry">
            <mxPoint x="-1313.44" y="744" as="sourcePoint" />
            <mxPoint x="-1390" y="1040" as="targetPoint" />
            <mxPoint as="offset" />
          </mxGeometry>
        </mxCell>
        <mxCell id="utYXCjNVVaFUY7Kg1UjY-118" value="MessageContentDTO" style="swimlane;fontStyle=1;align=center;verticalAlign=top;childLayout=stackLayout;horizontal=1;startSize=26;horizontalStack=0;resizeParent=1;resizeParentMax=0;resizeLast=0;collapsible=1;marginBottom=0;whiteSpace=wrap;html=1;" vertex="1" parent="WIyWlLk6GJQsqaUBKTNV-1">
          <mxGeometry x="-1480" y="996" width="210" height="112" as="geometry" />
        </mxCell>
        <mxCell id="utYXCjNVVaFUY7Kg1UjY-119" value="+ userId: Long" style="text;strokeColor=none;fillColor=none;align=left;verticalAlign=top;spacingLeft=4;spacingRight=4;overflow=hidden;rotatable=0;points=[[0,0.5],[1,0.5]];portConstraint=eastwest;whiteSpace=wrap;html=1;" vertex="1" parent="utYXCjNVVaFUY7Kg1UjY-118">
          <mxGeometry y="26" width="210" height="26" as="geometry" />
        </mxCell>
        <mxCell id="utYXCjNVVaFUY7Kg1UjY-122" value="+ content: String" style="text;strokeColor=none;fillColor=none;align=left;verticalAlign=top;spacingLeft=4;spacingRight=4;overflow=hidden;rotatable=0;points=[[0,0.5],[1,0.5]];portConstraint=eastwest;whiteSpace=wrap;html=1;" vertex="1" parent="utYXCjNVVaFUY7Kg1UjY-118">
          <mxGeometry y="52" width="210" height="26" as="geometry" />
        </mxCell>
        <mxCell id="utYXCjNVVaFUY7Kg1UjY-120" value="" style="line;strokeWidth=1;fillColor=none;align=left;verticalAlign=middle;spacingTop=-1;spacingLeft=3;spacingRight=3;rotatable=0;labelPosition=right;points=[];portConstraint=eastwest;strokeColor=inherit;" vertex="1" parent="utYXCjNVVaFUY7Kg1UjY-118">
          <mxGeometry y="78" width="210" height="8" as="geometry" />
        </mxCell>
        <mxCell id="utYXCjNVVaFUY7Kg1UjY-121" value="+ getters and setters()" style="text;strokeColor=none;fillColor=none;align=left;verticalAlign=top;spacingLeft=4;spacingRight=4;overflow=hidden;rotatable=0;points=[[0,0.5],[1,0.5]];portConstraint=eastwest;whiteSpace=wrap;html=1;" vertex="1" parent="utYXCjNVVaFUY7Kg1UjY-118">
          <mxGeometry y="86" width="210" height="26" as="geometry" />
        </mxCell>
        <mxCell id="utYXCjNVVaFUY7Kg1UjY-123" value="Use" style="endArrow=open;endSize=12;dashed=1;html=1;rounded=0;exitX=0.515;exitY=1.16;exitDx=0;exitDy=0;exitPerimeter=0;" edge="1" parent="WIyWlLk6GJQsqaUBKTNV-1">
          <mxGeometry width="160" relative="1" as="geometry">
            <mxPoint x="-1090" y="744" as="sourcePoint" />
            <mxPoint x="-1000" y="980" as="targetPoint" />
          </mxGeometry>
        </mxCell>
        <mxCell id="utYXCjNVVaFUY7Kg1UjY-125" value="MessageReactionDTO" style="swimlane;fontStyle=1;align=center;verticalAlign=top;childLayout=stackLayout;horizontal=1;startSize=26;horizontalStack=0;resizeParent=1;resizeParentMax=0;resizeLast=0;collapsible=1;marginBottom=0;whiteSpace=wrap;html=1;" vertex="1" parent="WIyWlLk6GJQsqaUBKTNV-1">
          <mxGeometry x="-1080" y="980" width="160" height="86" as="geometry" />
        </mxCell>
        <mxCell id="utYXCjNVVaFUY7Kg1UjY-126" value="+ reaction: String" style="text;strokeColor=none;fillColor=none;align=left;verticalAlign=top;spacingLeft=4;spacingRight=4;overflow=hidden;rotatable=0;points=[[0,0.5],[1,0.5]];portConstraint=eastwest;whiteSpace=wrap;html=1;" vertex="1" parent="utYXCjNVVaFUY7Kg1UjY-125">
          <mxGeometry y="26" width="160" height="26" as="geometry" />
        </mxCell>
        <mxCell id="utYXCjNVVaFUY7Kg1UjY-127" value="" style="line;strokeWidth=1;fillColor=none;align=left;verticalAlign=middle;spacingTop=-1;spacingLeft=3;spacingRight=3;rotatable=0;labelPosition=right;points=[];portConstraint=eastwest;strokeColor=inherit;" vertex="1" parent="utYXCjNVVaFUY7Kg1UjY-125">
          <mxGeometry y="52" width="160" height="8" as="geometry" />
        </mxCell>
        <mxCell id="utYXCjNVVaFUY7Kg1UjY-128" value="+ getters and setters()" style="text;strokeColor=none;fillColor=none;align=left;verticalAlign=top;spacingLeft=4;spacingRight=4;overflow=hidden;rotatable=0;points=[[0,0.5],[1,0.5]];portConstraint=eastwest;whiteSpace=wrap;html=1;" vertex="1" parent="utYXCjNVVaFUY7Kg1UjY-125">
          <mxGeometry y="60" width="160" height="26" as="geometry" />
        </mxCell>
        <mxCell id="utYXCjNVVaFUY7Kg1UjY-129" value="Use" style="endArrow=open;endSize=12;dashed=1;html=1;rounded=0;" edge="1" parent="WIyWlLk6GJQsqaUBKTNV-1" target="utYXCjNVVaFUY7Kg1UjY-130">
          <mxGeometry x="0.2798" y="-2" width="160" relative="1" as="geometry">
            <mxPoint x="-1038.5" y="400" as="sourcePoint" />
            <mxPoint x="-990" y="250" as="targetPoint" />
            <mxPoint as="offset" />
          </mxGeometry>
        </mxCell>
        <mxCell id="utYXCjNVVaFUY7Kg1UjY-130" value="UserDTO" style="swimlane;fontStyle=1;align=center;verticalAlign=top;childLayout=stackLayout;horizontal=1;startSize=26;horizontalStack=0;resizeParent=1;resizeParentMax=0;resizeLast=0;collapsible=1;marginBottom=0;whiteSpace=wrap;html=1;" vertex="1" parent="WIyWlLk6GJQsqaUBKTNV-1">
          <mxGeometry x="-1010" y="116" width="160" height="138" as="geometry" />
        </mxCell>
        <mxCell id="utYXCjNVVaFUY7Kg1UjY-131" value="+ userName: String" style="text;strokeColor=none;fillColor=none;align=left;verticalAlign=top;spacingLeft=4;spacingRight=4;overflow=hidden;rotatable=0;points=[[0,0.5],[1,0.5]];portConstraint=eastwest;whiteSpace=wrap;html=1;" vertex="1" parent="utYXCjNVVaFUY7Kg1UjY-130">
          <mxGeometry y="26" width="160" height="26" as="geometry" />
        </mxCell>
        <mxCell id="utYXCjNVVaFUY7Kg1UjY-135" value="+ email: String" style="text;strokeColor=none;fillColor=none;align=left;verticalAlign=top;spacingLeft=4;spacingRight=4;overflow=hidden;rotatable=0;points=[[0,0.5],[1,0.5]];portConstraint=eastwest;whiteSpace=wrap;html=1;" vertex="1" parent="utYXCjNVVaFUY7Kg1UjY-130">
          <mxGeometry y="52" width="160" height="26" as="geometry" />
        </mxCell>
        <mxCell id="utYXCjNVVaFUY7Kg1UjY-134" value="+ role: int" style="text;strokeColor=none;fillColor=none;align=left;verticalAlign=top;spacingLeft=4;spacingRight=4;overflow=hidden;rotatable=0;points=[[0,0.5],[1,0.5]];portConstraint=eastwest;whiteSpace=wrap;html=1;" vertex="1" parent="utYXCjNVVaFUY7Kg1UjY-130">
          <mxGeometry y="78" width="160" height="26" as="geometry" />
        </mxCell>
        <mxCell id="utYXCjNVVaFUY7Kg1UjY-132" value="" style="line;strokeWidth=1;fillColor=none;align=left;verticalAlign=middle;spacingTop=-1;spacingLeft=3;spacingRight=3;rotatable=0;labelPosition=right;points=[];portConstraint=eastwest;strokeColor=inherit;" vertex="1" parent="utYXCjNVVaFUY7Kg1UjY-130">
          <mxGeometry y="104" width="160" height="8" as="geometry" />
        </mxCell>
        <mxCell id="utYXCjNVVaFUY7Kg1UjY-133" value="+ getters and setters()" style="text;strokeColor=none;fillColor=none;align=left;verticalAlign=top;spacingLeft=4;spacingRight=4;overflow=hidden;rotatable=0;points=[[0,0.5],[1,0.5]];portConstraint=eastwest;whiteSpace=wrap;html=1;" vertex="1" parent="utYXCjNVVaFUY7Kg1UjY-130">
          <mxGeometry y="112" width="160" height="26" as="geometry" />
        </mxCell>
      </root>
    </mxGraphModel>
  </diagram>
</mxfile>
